# xmcd
#
# Track frame offsets:
#	150
#	22620
#	39457
#	58755
#	78077
#	97112
#	108935
#	129330
#	141682
#	163325
#
# Disc length: 2418 seconds
#
# Revision: 1
# Processed by: cddbd v1.5PL3 Copyright (c) Steve Scherf et al.
# Submitted via: CDex 1.50Beta5
#
DISCID=8009700a
DTITLE=HARCO - HARCO
DYEAR=2002
DGENRE=Rock
TTITLE0=愛されたいから
TTITLE1=記憶全集
TTITLE2=彗星
TTITLE3=そして会いに行く
TTITLE4=数秒、数分、数時間
TTITLE5=シリーズ最終回
TTITLE6=人
TTITLE7=猫型サミット
TTITLE8=逆光
TTITLE9=高原ビール
EXTD=
EXTT0=
EXTT1=
EXTT2=
EXTT3=
EXTT4=
EXTT5=
EXTT6=
EXTT7=
EXTT8=
EXTT9=
PLAYORDER=
